:FULLY-SPECIFIED
:FORCE-ALL-JOINTS-BE-3DOF
:DEGREES
1223
root -0.842055 14.8461 -16.6087 9.29817 17.1358 0.72308
lfemur -0.982916 -0.987618 -8.7994
ltibia 61.2131 -0 0
lfoot 2.23576 2.96766 -1.398
ltoes -28.9862 0 0
rfemur -52.6343 -9.63594 22.456
rtibia 73.2011 -0 0
rfoot -19.9117 -19.2567 0.373577
rtoes -5.96384 0 0
lowerback 12.6987 1.54226 -2.9458
upperback -3.32811 1.58657 -0.0280064
thorax -10.8617 0.940988 1.27497
lowerneck -1.1963 -8.63676 -9.86888
upperneck 0.928202 -11.5785 10.346
head 1.68736 -5.74704 4.33072
lclavicle -2.73065e-14 -1.84249e-14 0
lhumerus -56.3561 -32.3806 117.2
lradius 87.6384 -0 0
lwrist 14.6938 0 0
lhand -27.2399 27.6046 0.357479
lfingers 7.12502 -0 0
lthumb -0.652699 57.4837 0.337356
rclavicle -2.73065e-14 -1.84249e-14 0
rhumerus 64.6991 4.37782 -26.8005
rradius 93.6075 -0 0
rwrist -11.9603 0 0
rhand -29.6169 -34.2207 -0.0417369
rfingers 7.12502 -0 0
rthumb -2.94662 -64.1465 -0.0436876
1224
root -0.856038 14.8573 -16.487 9.51001 16.6902 0.547739
lfemur -1.3329 -1.13385 -8.80908
ltibia 61.9347 -0 0
lfoot 2.91271 2.08396 -1.25926
ltoes -29.0494 0 0
rfemur -52.5427 -9.31726 22.8854
rtibia 73.3349 -0 0
rfoot -20.1654 -19.8926 0.33668
rtoes -5.85459 0 0
lowerback 12.6027 1.49787 -2.73241
upperback -3.38743 1.56684 0.00139362
thorax -10.8631 0.920377 1.19317
lowerneck -1.2375 -8.51066 -9.76772
upperneck 0.854378 -11.4001 10.2792
head 1.64123 -5.65727 4.30794
lclavicle -2.73065e-14 -1.84249e-14 0
lhumerus -55.9077 -32.8998 117.581
lradius 87.0941 -0 0
lwrist 13.0484 0 0
lhand -27.654 27.2311 0.322206
lfingers 7.12502 -0 0
lthumb -1.05246 57.1186 0.304072
rclavicle -2.73065e-14 -1.84249e-14 0
rhumerus 64.7747 4.78489 -26.722
rradius 93.6985 -0 0
rwrist -12.6084 0 0
rhand -29.378 -34.2965 -0.0376249
rfingers 7.12502 -0 0
rthumb -2.71606 -64.2286 -0.0393834
1225
root -0.870021 14.8684 -16.3652 9.72278 16.2452 0.371085
lfemur -1.68287 -1.28014 -8.81785
ltibia 62.6563 -0 0
lfoot 3.5874 1.20202 -1.11012
ltoes -29.1126 0 0
rfemur -52.4487 -8.99927 23.315
rtibia 73.4686 -0 0
rfoot -20.4186 -20.5283 0.296971
rtoes -5.74535 0 0
lowerback 12.5065 1.45384 -2.51895
upperback -3.44676 1.54714 0.0308137
thorax -10.8645 0.899764 1.11137
lowerneck -1.27846 -8.38449 -9.66668
upperneck 0.780387 -11.2218 10.2122
head 1.59507 -5.56752 4.2851
lclavicle -2.73065e-14 -1.84249e-14 0
lhumerus -55.4608 -33.4215 117.959
lradius 86.5497 -0 0
lwrist 11.403 0 0
lhand -28.0679 26.858 0.284236
lfingers 7.12502 -0 0
lthumb -1.452 56.7538 0.268243
rclavicle -2.73065e-14 -1.84249e-14 0
rhumerus 64.8509 5.19186 -26.6429
rradius 93.7894 -0 0
rwrist -13.2564 0 0
rhand -29.1392 -34.3723 -0.033197
rfingers 7.12502 -0 0
rthumb -2.4855 -64.3108 -0.0347486
1226
root -0.884004 14.8796 -16.2435 9.9365 15.8008 0.193108
lfemur -2.03285 -1.42648 -8.82574
ltibia 63.3778 -0 0
lfoot 4.25969 0.321936 -0.950612
ltoes -29.1758 0 0
rfemur -52.3524 -8.68198 23.7448
rtibia 73.6024 -0 0
rfoot -20.6714 -21.1638 0.254456
rtoes -5.6361 0 0
lowerback 12.4102 1.41017 -2.30542
upperback -3.50609 1.52747 0.0602539
thorax -10.8659 0.879149 1.02956
lowerneck -1.31918 -8.25825 -9.56577
upperneck 0.70623 -11.0435 10.1449
head 1.54888 -5.47779 4.26218
lclavicle -2.73065e-14 -1.84249e-14 0
lhumerus -55.0154 -33.9456 118.334
lradius 86.0054 -0 0
lwrist 9.75763 0 0
lhand -28.4814 26.4851 0.243573
lfingers 7.12502 -0 0
lthumb -1.8513 56.3892 0.229871
rclavicle -2.73065e-14 -1.84249e-14 0
rhumerus 64.9277 5.59873 -26.5633
rradius 93.8804 -0 0
rwrist -13.9044 0 0
rhand -28.9004 -34.448 -0.0284532
rfingers 7.12502 -0 0
rthumb -2.25494 -64.393 -0.0297832
1227
root -0.897987 14.8907 -16.1218 10.1512 15.3571 0.0137976
lfemur -2.38283 -1.57286 -8.83273
ltibia 64.0994 -0 0
lfoot 4.92942 -0.556178 -0.780814
ltoes -29.239 0 0
rfemur -52.2538 -8.36541 24.1747
rtibia 73.7362 -0 0
rfoot -20.9237 -21.7992 0.209139
rtoes -5.52686 0 0
lowerback 12.3137 1.36686 -2.09182
upperback -3.56544 1.50784 0.0897143
thorax -10.8672 0.858532 0.947766
lowerneck -1.35966 -8.13193 -9.46498
upperneck 0.631904 -10.8654 10.0775
head 1.50266 -5.38808 4.2392
lclavicle -2.73065e-14 -1.84249e-14 0
lhumerus -54.5714 -34.4722 118.707
lradius 85.461 -0 0
lwrist 8.11224 0 0
lhand -28.8948 26.1125 0.20022
lfingers 7.12502 -0 0
lthumb -2.25035 56.0249 0.18896
rclavicle -2.73065e-14 -1.84249e-14 0
rhumerus 65.0052 6.00548 -26.483
rradius 93.9713 -0 0
rwrist -14.5524 0 0
rhand -28.6616 -34.5238 -0.0233936
rfingers 7.12502 -0 0
rthumb -2.0244 -64.4751 -0.0244872
1228
root -0.91197 14.9019 -16.0001 10.3669 14.914 -0.166857
lfemur -2.73281 -1.71928 -8.83883
ltibia 64.821 -0 0
lfoot 5.59644 -1.43221 -0.600786
ltoes -29.3022 0 0
rfemur -52.1529 -8.04959 24.6049
rtibia 73.8699 -0 0
rfoot -21.1755 -22.4343 0.161028
rtoes -5.41761 0 0
lowerback 12.2171 1.32391 -1.87815
upperback -3.6248 1.48823 0.119195
thorax -10.8686 0.837913 0.865967
lowerneck -1.3999 -8.00555 -9.36431
upperneck 0.557408 -10.6873 10.0099
head 1.45641 -5.29839 4.21615
lclavicle -2.73065e-14 -1.84249e-14 0
lhumerus -54.1287 -35.0011 119.077
lradius 84.9167 -0 0
lwrist 6.46684 0 0
lhand -29.3078 25.7403 0.154182
lfingers 7.12502 -0 0
lthumb -2.64912 55.6608 0.145513
rclavicle -2.73065e-14 -1.84249e-14 0
rhumerus 65.0832 6.41213 -26.4021
rradius 94.0623 -0 0
rwrist -15.2004 0 0
rhand -28.4228 -34.5995 -0.0180184
rfingers 7.12502 -0 0
rthumb -1.79386 -64.5572 -0.0188608
1229
root -0.925953 14.913 -15.8784 10.5835 14.4716 -0.348867
lfemur -3.08281 -1.86574 -8.84403
ltibia 65.5426 -0 0
lfoot 6.26062 -2.30607 -0.410593
ltoes -29.3654 0 0
rfemur -52.0496 -7.73452 25.0352
rtibia 74.0037 -0 0
rfoot -21.4267 -23.0692 0.11013
rtoes -5.30837 0 0
lowerback 12.1203 1.28132 -1.66442
upperback -3.68417 1.46865 0.148695
thorax -10.8698 0.817292 0.784169
lowerneck -1.43991 -7.8791 -9.26377
upperneck 0.482743 -10.5093 9.94207
head 1.41013 -5.20871 4.19302
lclavicle -2.73065e-14 -1.84249e-14 0
lhumerus -53.6873 -35.5324 119.445
lradius 84.3723 -0 0
lwrist 4.82144 0 0
lhand -29.7205 25.3684 0.105463
lfingers 7.12502 -0 0
lthumb -3.04762 55.2971 0.0995348
rclavicle -2.73065e-14 -1.84249e-14 0
rhumerus 65.162 6.81867 -26.3206
rradius 94.1532 -0 0
rwrist -15.8485 0 0
rhand -28.184 -34.6752 -0.0123277
rfingers 7.12502 -0 0
rthumb -1.56333 -64.6393 -0.012904
